dataset
version=1
nRows=16
nColumns=39
inDegrees=no
endheader
time	sternoclavicular_r2	sternoclavicular_r3	unrotscap_r3	unrotscap_r2	acromioclavicular_r2	acromioclavicular_r3	acromioclavicular_r1	unrothum_r1	unrothum_r3	unrothum_r2	elv_angle	shoulder_elv	shoulder1_r2	shoulder_rot	elbow_flexion	pro_sup	deviation	flexion	cmc_abduction	cmc_flexion	mp_flexion	ip_flexion	mcp2_flexion	mcp2_abduction	pm2_flexion	md2_flexion	mcp3_flexion	mcp3_abduction	pm3_flexion	md3_flexion	mcp4_flexion	mcp4_abduction	pm4_flexion	md4_flexion	mcp5_flexion	mcp5_abduction	pm5_flexion	md5_flexion
3.200000	-0.024234	-0.513670	0.321354	0.188701	0.126984	0.312577	-0.191091	0.130740	-0.005747	0.114768	0.121862	0.027437	0.146525	0.146525	1.617515	1.442105	0.000000	0.000000	0.000000	0.000000	0.000000	0.000000	0.000000	0.000000	0.000000	0.000000	0.000000	0.000000	0.000000	0.000000	0.000000	0.000000	0.000000	0.000000	0.000000	0.000000	0.000000	0.000000
3.205000	-0.024435	-0.514363	0.322008	0.189718	0.127999	0.312657	-0.191542	0.131343	-0.005706	0.115856	0.123006	0.027437	0.146525	0.146525	1.608066	1.444271	0.000000	0.000000	0.000000	0.000000	0.000000	0.000000	0.000000	0.000000	0.000000	0.000000	0.000000	0.000000	0.000000	0.000000	0.000000	0.000000	0.000000	0.000000	0.000000	0.000000	0.000000	0.000000
3.210000	-0.024633	-0.515064	0.322671	0.190723	0.129000	0.312740	-0.192001	0.131959	-0.005677	0.116929	0.124134	0.027437	0.146525	0.146525	1.598744	1.446491	0.000000	0.000000	0.000000	0.000000	0.000000	0.000000	0.000000	0.000000	0.000000	0.000000	0.000000	0.000000	0.000000	0.000000	0.000000	0.000000	0.000000	0.000000	0.000000	0.000000	0.000000	0.000000
3.215000	-0.024827	-0.515773	0.323342	0.191717	0.129989	0.312826	-0.192470	0.132589	-0.005660	0.117986	0.125247	0.027437	0.146525	0.146525	1.589553	1.448766	0.000000	0.000000	0.000000	0.000000	0.000000	0.000000	0.000000	0.000000	0.000000	0.000000	0.000000	0.000000	0.000000	0.000000	0.000000	0.000000	0.000000	0.000000	0.000000	0.000000	0.000000	0.000000
3.220000	-0.025019	-0.516490	0.324021	0.192698	0.130965	0.312914	-0.192949	0.133231	-0.005654	0.119028	0.126344	0.027437	0.146525	0.146525	1.580494	1.451098	0.000000	0.000000	0.000000	0.000000	0.000000	0.000000	0.000000	0.000000	0.000000	0.000000	0.000000	0.000000	0.000000	0.000000	0.000000	0.000000	0.000000	0.000000	0.000000	0.000000	0.000000	0.000000
3.225000	-0.025207	-0.517213	0.324709	0.193666	0.131926	0.313004	-0.193437	0.133886	-0.005661	0.120053	0.127426	0.027437	0.146525	0.146525	1.571572	1.453486	0.000000	0.000000	0.000000	0.000000	0.000000	0.000000	0.000000	0.000000	0.000000	0.000000	0.000000	0.000000	0.000000	0.000000	0.000000	0.000000	0.000000	0.000000	0.000000	0.000000	0.000000	0.000000
3.230000	-0.025392	-0.517943	0.325405	0.194621	0.132874	0.313097	-0.193936	0.134553	-0.005679	0.121062	0.128491	0.027437	0.146525	0.146525	1.562788	1.455932	0.000000	0.000000	0.000000	0.000000	0.000000	0.000000	0.000000	0.000000	0.000000	0.000000	0.000000	0.000000	0.000000	0.000000	0.000000	0.000000	0.000000	0.000000	0.000000	0.000000	0.000000	0.000000
3.235000	-0.025574	-0.518679	0.326110	0.195562	0.133807	0.313192	-0.194445	0.135230	-0.005708	0.122054	0.129540	0.027437	0.146525	0.146525	1.554145	1.458438	0.000000	0.000000	0.000000	0.000000	0.000000	0.000000	0.000000	0.000000	0.000000	0.000000	0.000000	0.000000	0.000000	0.000000	0.000000	0.000000	0.000000	0.000000	0.000000	0.000000	0.000000	0.000000
3.240000	-0.025753	-0.519418	0.326824	0.196490	0.134725	0.313290	-0.194964	0.135919	-0.005749	0.123030	0.130571	0.027437	0.146525	0.146525	1.545644	1.461004	0.000000	0.000000	0.000000	0.000000	0.000000	0.000000	0.000000	0.000000	0.000000	0.000000	0.000000	0.000000	0.000000	0.000000	0.000000	0.000000	0.000000	0.000000	0.000000	0.000000	0.000000	0.000000
3.245000	-0.025930	-0.520162	0.327545	0.197403	0.135628	0.313389	-0.195493	0.136618	-0.005801	0.123988	0.131585	0.027437	0.146525	0.146525	1.537288	1.463632	0.000000	0.000000	0.000000	0.000000	0.000000	0.000000	0.000000	0.000000	0.000000	0.000000	0.000000	0.000000	0.000000	0.000000	0.000000	0.000000	0.000000	0.000000	0.000000	0.000000	0.000000	0.000000
3.250000	-0.026103	-0.520908	0.328275	0.198302	0.136515	0.313491	-0.196032	0.137326	-0.005864	0.124930	0.132582	0.027437	0.146525	0.146525	1.529077	1.466321	0.000000	0.000000	0.000000	0.000000	0.000000	0.000000	0.000000	0.000000	0.000000	0.000000	0.000000	0.000000	0.000000	0.000000	0.000000	0.000000	0.000000	0.000000	0.000000	0.000000	0.000000	0.000000
3.255000	-0.026273	-0.521656	0.329013	0.199186	0.137387	0.313595	-0.196580	0.138043	-0.005938	0.125853	0.133562	0.027437	0.146525	0.146525	1.521014	1.469075	0.000000	0.000000	0.000000	0.000000	0.000000	0.000000	0.000000	0.000000	0.000000	0.000000	0.000000	0.000000	0.000000	0.000000	0.000000	0.000000	0.000000	0.000000	0.000000	0.000000	0.000000	0.000000
3.260000	-0.026440	-0.522405	0.329758	0.200055	0.138243	0.313702	-0.197139	0.138769	-0.006021	0.126759	0.134523	0.027437	0.146525	0.146525	1.513099	1.471893	0.000000	0.000000	0.000000	0.000000	0.000000	0.000000	0.000000	0.000000	0.000000	0.000000	0.000000	0.000000	0.000000	0.000000	0.000000	0.000000	0.000000	0.000000	0.000000	0.000000	0.000000	0.000000
3.265000	-0.026604	-0.523154	0.330510	0.200908	0.139082	0.313810	-0.197706	0.139502	-0.006115	0.127647	0.135467	0.027437	0.146525	0.146525	1.505334	1.474777	0.000000	0.000000	0.000000	0.000000	0.000000	0.000000	0.000000	0.000000	0.000000	0.000000	0.000000	0.000000	0.000000	0.000000	0.000000	0.000000	0.000000	0.000000	0.000000	0.000000	0.000000	0.000000
3.270000	-0.026766	-0.523903	0.331269	0.201747	0.139906	0.313920	-0.198283	0.140241	-0.006218	0.128517	0.136392	0.027437	0.146525	0.146525	1.497718	1.477728	0.000000	0.000000	0.000000	0.000000	0.000000	0.000000	0.000000	0.000000	0.000000	0.000000	0.000000	0.000000	0.000000	0.000000	0.000000	0.000000	0.000000	0.000000	0.000000	0.000000	0.000000	0.000000
3.275000	-0.026924	-0.524650	0.332035	0.202569	0.140712	0.314033	-0.198868	0.140987	-0.006330	0.129368	0.137299	0.027437	0.146525	0.146525	1.490253	1.480747	0.000000	0.000000	0.000000	0.000000	0.000000	0.000000	0.000000	0.000000	0.000000	0.000000	0.000000	0.000000	0.000000	0.000000	0.000000	0.000000	0.000000	0.000000	0.000000	0.000000	0.000000	0.000000
